<svg xmlns="http://www.w3.org/2000/svg" width="116.09" height="36.723" viewBox="0 0 116.09 36.723">
  <g id="Layer_1-2" transform="translate(-0.018 0.005)">
    <path id="Path_1" data-name="Path 1" d="M646.945,14.628l3.662-5.2H661.35c-.748,2.518-4.822,7.294-12.132,14.314-6.836,6.776-11.094,12.345-12.818,16.786h8.088l1.114-2.06.092-.061v-.061l.107-.244a61.753,61.753,0,0,1,11.354-13.52C666.371,15.7,671.025,9.119,671.04,4.8H648.158l-5.677,9.828h4.464Z" transform="translate(-587.826 -4.439)" fill="#fff" fill-rule="evenodd"/>
    <path id="Path_2" data-name="Path 2" d="M1111.023,12.343c2.152-1.77,3.3-3.479,3.4-5.143h-30.742a21.172,21.172,0,0,1-2.884,6.867h16.145a6.579,6.579,0,0,1,.885-1.419c.214-.305.672-.382,1.358-.305h11.834Z" transform="translate(-998.318 -6.656)" fill="#fff" fill-rule="evenodd"/>
    <path id="Path_3" data-name="Path 3" d="M948.058,120.24l3.693-.687,1.785-1.953H937.65c-3.464,3.708-3.723,6.287-.794,7.767.305.015.381-.214.259-.778a3.074,3.074,0,0,1,.305-2.3,3.659,3.659,0,0,1,1.1-1.465h6.135l-6.135,7.035a4.123,4.123,0,0,1-2.686.519h-7.05l-1.984,1.74h8.82a5.609,5.609,0,0,0,4.3-1.221l6.043-7.02c.763-1.053,1.45-1.618,2.091-1.633Z" transform="translate(-856.068 -108.632)" fill="#fff" fill-rule="evenodd"/>
    <path id="Path_4" data-name="Path 4" d="M28.667,9.975c.7-5.143-.58-8.286-3.785-9.461-3.8-1.434-8.088.107-12.834,4.578a39.153,39.153,0,0,0-4.883,5.585A24.8,24.8,0,0,0,4.5,14.858L3.183,17.483a39,39,0,0,0-2.32,6.333C-.884,30.248.077,34.323,3.74,36c3.632,1.694,7.9.382,12.742-3.922a41.017,41.017,0,0,0,7.325-8.744l1.3-2.259a34.5,34.5,0,0,0,3.51-10.758l.046-.336h0Zm-17.915,7.05a65.261,65.261,0,0,1,4.99-7.966c3.2-4.471,5.585-6.44,7.188-5.875q3.617,1.351-5.311,16.939a81.706,81.706,0,0,1-5.433,7.966C8.89,32.24,6.6,34.01,5.365,33.369c-1.3-.687-.931-3.372,1.114-8.012l4.273-8.332h0Z" transform="translate(0 0)" fill="#fff" fill-rule="evenodd"/>
    <path id="Path_5" data-name="Path 5" d="M355.731,9.975c.7-5.143-.58-8.286-3.785-9.461-3.8-1.434-8.088.107-12.834,4.578a39.153,39.153,0,0,0-4.883,5.585,24.793,24.793,0,0,0-2.671,4.181l-1.312,2.625a39,39,0,0,0-2.32,6.333c-1.74,6.425-.778,10.5,2.884,12.178,3.632,1.694,7.9.382,12.742-3.922a41.018,41.018,0,0,0,7.325-8.744l1.3-2.259a34.5,34.5,0,0,0,3.51-10.758l.046-.336h0Zm-17.915,7.05a65.262,65.262,0,0,1,4.99-7.966c3.2-4.471,5.585-6.44,7.188-5.875q3.617,1.351-5.311,16.939a81.706,81.706,0,0,1-5.433,7.966c-3.3,4.151-5.585,5.921-6.821,5.28-1.3-.687-.931-3.372,1.114-8.012l4.273-8.332Z" transform="translate(-302.113 0)" fill="#fff" fill-rule="evenodd"/>
  </g>
</svg>
