<svg id="Group_4" data-name="Group 4" xmlns="http://www.w3.org/2000/svg" xmlns:xlink="http://www.w3.org/1999/xlink" width="21.469" height="20" viewBox="0 0 21.469 20">
  <defs>
    <clipPath id="clip-path">
      <rect id="Rectangle_31" data-name="Rectangle 31" width="21.469" height="20" fill="none"/>
    </clipPath>
  </defs>
  <g id="Group_3" data-name="Group 3" clip-path="url(#clip-path)">
    <path id="Path_6" data-name="Path 6" d="M21.469,10.129a1.354,1.354,0,0,1-.685.879,1.193,1.193,0,0,1-1.3-.133,2.331,2.331,0,0,1-.247-.226L11.364,2.778a.761.761,0,0,0-1.259,0L2.187,10.69a1.235,1.235,0,0,1-1.576.282A1.222,1.222,0,0,1,.237,9.193a2.517,2.517,0,0,1,.236-.267Q4.43,4.967,8.389,1.009A3.228,3.228,0,0,1,13.072,1q1.061,1.059,2.12,2.12c.053.053.108.1.2.189,0-.43,0-.817,0-1.2a1.246,1.246,0,0,1,.415-.991A1.172,1.172,0,0,1,17.114.908a1.2,1.2,0,0,1,.742,1.186q.008,1.709,0,3.417a.6.6,0,0,0,.194.474c.936.922,1.859,1.858,2.793,2.782a2.045,2.045,0,0,1,.63.942Z" transform="translate(0 -0.001)" fill="#fff"/>
    <path id="Path_7" data-name="Path 7" d="M64.465,103.624V98.167h-4v5.45c-.078.008-.132.017-.185.017-1.1,0-2.208.007-3.312,0a2.208,2.208,0,0,1-2.244-1.91,2.321,2.321,0,0,1-.021-.376c0-1.677,0-3.354,0-5.031a.833.833,0,0,1,.266-.632q3.5-3.487,6.984-6.979a.627.627,0,0,1,1.029,0q3.492,3.49,6.984,6.979a.834.834,0,0,1,.263.633c-.006,1.677,0,3.354,0,5.031a2.208,2.208,0,0,1-2.249,2.281c-1.111.012-2.222,0-3.333,0-.048,0-.1-.006-.177-.011" transform="translate(-51.733 -83.638)" fill="#fff"/>
  </g>
</svg>
