<svg xmlns="http://www.w3.org/2000/svg" width="21.181" height="17.544" viewBox="0 0 21.181 17.544">
  <path id="Path_8" data-name="Path 8" d="M.317,308.386c2.162-1.189,4.587-2.193,6.841-3.2,3.892-1.637,7.783-3.258,11.737-4.756.772-.263,2.147-.51,2.286.633-.077,1.606-.371,3.212-.587,4.8-.525,3.521-1.143,7.027-1.745,10.532a1.653,1.653,0,0,1-2.61,1.019c-2.255-1.513-4.509-3.027-6.733-4.571-.726-.741-.046-1.807.6-2.332,1.853-1.822,3.814-3.382,5.575-5.3.479-1.143-.927-.185-1.39.108-2.533,1.745-5,3.6-7.691,5.142-1.359.757-2.965.108-4.324-.309-1.22-.494-3.011-1-1.961-1.776" transform="translate(0 -300.212)" fill="#fff"/>
</svg>
