<svg xmlns="http://www.w3.org/2000/svg" width="22.911" height="18.612" viewBox="0 0 22.911 18.612">
  <path id="Path_9" data-name="Path 9" d="M267.448,212.085a4.694,4.694,0,0,1,2.546-.484,5.075,5.075,0,0,1,2.661,1.166c.14.115.271.3.476.255a8.74,8.74,0,0,0,2.02-.682c.271-.123.534-.279.8-.4a4.422,4.422,0,0,1-1.084,1.831,5.971,5.971,0,0,1-.8.706,3.052,3.052,0,0,0,.9-.14,7.968,7.968,0,0,0,.862-.255c.263-.082.5-.222.772-.279a10,10,0,0,1-1.429,1.683,9.88,9.88,0,0,1-.912.755,5.534,5.534,0,0,1-.041,1.224c-.033.32-.016.649-.049.977-.074.427-.148.854-.23,1.281-.123.353-.172.714-.287,1.068-.115.4-.287.78-.427,1.174a14.091,14.091,0,0,1-2.053,3.449,14.8,14.8,0,0,1-1.568,1.642,12.06,12.06,0,0,1-2.423,1.634,11.539,11.539,0,0,1-3.72,1.265c-.337.09-.69.082-1.026.164-.394.008-.772.1-1.166.082s-.772.016-1.158-.008c-.378-.082-.764-.033-1.141-.123a12.76,12.76,0,0,1-3.334-.936c-.484-.2-.944-.452-1.412-.69a2.1,2.1,0,0,1-.534-.337c.526-.025,1.059.016,1.585-.008a6.452,6.452,0,0,0,1.314-.156,9.689,9.689,0,0,0,3.966-1.774,5.487,5.487,0,0,1-1.659-.386,4.813,4.813,0,0,1-1.626-1.109,5.1,5.1,0,0,1-.969-1.519,1.148,1.148,0,0,1-.066-.279,4.652,4.652,0,0,0,1.905-.066c-.246-.123-.534-.164-.78-.3a4.691,4.691,0,0,1-2.094-1.839,5.09,5.09,0,0,1-.657-1.708,6.871,6.871,0,0,1-.041-.821c.287.074.542.238.829.32a2.873,2.873,0,0,0,1.084.189c-.3-.361-.706-.649-.977-1.043a4.575,4.575,0,0,1-.854-2.193,2.9,2.9,0,0,1-.041-.961,3,3,0,0,0,.082-.608,6.138,6.138,0,0,1,.517-1.4,3.674,3.674,0,0,1,.575.608,14.233,14.233,0,0,0,2.85,2.349c.452.263.911.526,1.388.747a13.642,13.642,0,0,0,2.817.928,14.718,14.718,0,0,0,2.069.271c-.008-.189-.082-.37-.09-.567q-.025-.517,0-1.035a4.855,4.855,0,0,1,.977-2.373,5.056,5.056,0,0,1,1.651-1.289" transform="translate(-253.693 -211.591)" fill="#fff"/>
</svg>
